<svg id="Layer_1" data-name="Layer 1" xmlns="http://www.w3.org/2000/svg" viewBox="0 0 361.16 393.94"><defs><style>.cls-1{fill:#fff;}</style></defs><title>kuningas10</title><path class="cls-1" d="M190.51,392.28c-1.39-2-2.87-3.92-4.16-6-1.12-1.78-3.16-3.9-2.85-5.5,1.07-5.57-2.26-8.72-5.4-12.15a87.08,87.08,0,0,1-6-6.63c-5.82-7.83-11.12-16.08-17.32-23.59-3.38-4.1-8.17-7-12.33-10.51-.5-.41-1.19-.71-1.48-1.23-3.14-5.49-6.83-10.76-9.19-16.57-3.87-9.5-6.71-19.42-10.29-29-4.54-12.2-3.25-24.16.8-36.1.32-.94,1.28-1.66,2-2.54,4,4.42,6.11,4,8.37-1.15,2.57-5.86,1.59-11.73.37-17.63-1.38-6.69-1.41-6.65-7.76-5.84a11.16,11.16,0,0,1-4-.07c-10.22-2.5-18-8.21-22.89-17.65,3.05,2.32,5.76,5.67,11.27,3.3-1.39-1.42-2.22-2.78-3.44-3.46-9.26-5.18-12.93-19.71-7.08-28.67,1.83-2.8,3.82-5,7.68-2.6,2.72,1.73,5.07-.75,3.92-2.49a22.45,22.45,0,0,0-8.86-7.87c-3.57-1.63-6.73,1.51-7.42,4.82-1.13,5.42-2.09,11.19-1.39,16.59.9,6.93,3.51,13.65,5.38,20.45-9.45-11.55-13.11-24.44-8.76-39,2-6.86,5.8-9.49,12.77-7.86,8.15,1.91,16.85,3.44,21.43,12a8,8,0,0,0,2.31,2.6c1.67,1.21,3.51,2.19,5.27,3.27,1.14-2.09,3-4.08,3.3-6.29a112.72,112.72,0,0,0,1.8-18.83c-.17-11.05,0-21.91,4.66-32.25.84-1.87,0-4.59,1-6.26,3.43-5.64,6.61-11.76,11.28-16.23,4.19-4,5.26-7,2.43-11.93-.52-.9,1.32-3.16,2.06-4.79a37,37,0,0,1,3,2.46,19,19,0,0,1,1.83,2.47,21.55,21.55,0,0,0,2.45-2.14,15.83,15.83,0,0,0,1.49-2.5l1.23.71c-.78,4.16-2.57,7.69-6.56,10.18-1,.59-1.27,2.21-1.88,3.36,1.19.31,2.66,1.24,3.51.84,3.74-1.76,7.59-3.54,10.77-6.1,1-.84.16-4.07.16-7,6.26,4,8.62-.37,11.13-4.34,1.77-2.8,2.93-6.18,5.22-8.43a33.05,33.05,0,0,1,21.09-9.68c4.31-.32,8.63-.66,13-.77,6.42-.16,13.18-1.82,19,2.11,5.24,3.56,10,7.87,15.06,11.65,2,1.48,5.62,1.9,6.37,3.7,3.79,9.05,11.87,16.33,11.27,27.26-.16,2.91.9,5.84,5.27,7.24-.15-2.15-.28-3.65-.35-5.14-.48-10.23-1.91-20.54-1.13-30.68.66-8.51.44-16.64-2.54-24.43-3.85-10.08-8.34-19.92-12.9-29.71-.77-1.66-3.13-3.07-5-3.59a28,28,0,0,0-8.89-.79c-1.82.11-3.58,1.36-5.37,2.1,1.55,1.1,3.11,2.19,4.64,3.33.17.13.14.54.23,1l-10.86,2.16c-1.81-4.08,4.54-8.22-1.08-11.23-3.61-1.94-7.31-3.71-9.48-4.81-1.79,2.21-3.18,4.85-3.92,4.68-5.38-1.25-11.35-2-15.73-5-6.08-4.13-12.11-4-18.53-3-1.48.23-2.78,2-4,3.24-.19.2.61,1.95.94,1.94,1.69,0,3.61.07,5-.7a11.19,11.19,0,0,1,11.68-.11c-2.45,1.3-5.14,1.79-7.56,2.86a6.77,6.77,0,0,0-3.39,3.36c-.58,1.56-.13,3.5-.13,5.28l-1.36.47c-.79-1.78-1.71-3.51-2.33-5.34-1.18-3.48-2.89-5.08-7.06-4.21-2.3.48-5-1.27-7.6-1.81a21.08,21.08,0,0,0-5.12-.43c-2.8.11-5.6.74-8.39.65-2.29-.07-4.7-1.61-6.8-1.2a61.81,61.81,0,0,0-11.7,3.93c-1.42.6-2.32,2.33-3.66,3.26a29.81,29.81,0,0,1-5.58,3.13c-1.58.65-3.54.46-5,1.22a32,32,0,0,0-7.56,4.8c-1.12,1-1.07,3.34-1.55,5.07l2.85,1.76,2.28-5.87c.71,8.47-.69,15.55-7.88,20.06.23-2.52,1.76-4.46,2.43-6.66.5-1.62-.12-3.58-.24-5.39-1.15.49-3.16.79-3.31,1.49-1.19,5.45-6.14,7.15-9.69,10.22C103,43.9,100.17,46,98,41c-2.82,2.14-5.41,3.94-7.75,6-.62.55-.48,2-.69,3,1.07.15,2.24.62,3.19.34.72-.21,1.15-1.37,1.73-2.13l3.58,3.85c-5.57,2.48-10.8,4.75-16,7.16a6.35,6.35,0,0,0-1.94,2.13,61.07,61.07,0,0,0-4.56,6.46c-1.06,1.91-2.44,4.31-2.05,6.14.32,1.49,3.06,2.46,5,3.85-.14.15-.84,1.27-1.1,1.18-4.15-1.52-5,1.73-5.82,4.27a167.22,167.22,0,0,0-5.37,18.12c-.73,3.44-1.15,7.7.22,10.69,4.44,9.68,5.45,19.74,5.7,30.13a63.78,63.78,0,0,0,2.08,16.19c4.13,14.18,8.42,28.35,13.61,42.16,2.7,7.18,4.75,15.55,13.55,18.68.74.26,1.15,1.47,1.31,1.7L92.14,241.73l-2.63.34,4.42,9.54L99,250.46c-.59,4.55-1.49,8.65-1.55,12.78s.69,8.29,1.18,13.35L95,273.49a71.36,71.36,0,0,0-7,5.5c-2.17,2.16-5.13,4.58-5.54,7.22-.77,5-1.12,10.62.41,15.31a315.14,315.14,0,0,0,13.37,34.21c5.9,12.79,11.31,26,21.86,36.06a3.16,3.16,0,0,1,1,1.68c.38,3,1.12,5.44,4.82,5.89,2.91.35,5.71,1.52,8.61,1.91,3.84.52,7.73.62,11.59.94,2.43.2,5.76,1.55,7.1.45,3.61-3,6.31-1.38,9.5.15,2.22,1.06,4.72,2.56,7,2.37,6-.51,9.81,3.29,14.28,6.07,2.25,1.4,5.09,1.82,7.67,2.69"/><path class="cls-1" d="M360.07,356.77l1.08-1.72c-3.3-2.44-6.46-5.11-9.93-7.28-15.3-9.55-32.23-14.89-49.71-18.61-3.63-.77-6.14-2.27-7.53-5.64-1.78-4.33-3.53-8.66-5.65-13.87,11.88,5.6,23.37,10.95,34.8,16.41,11.59,5.54,23.14,11.19,35.46,17.16a19.63,19.63,0,0,0-2.25-2.7c-12.89-10-25.37-20.47-40.07-27.92C305.62,307.2,295.39,301,285,295.09c-4.85-2.75-9.6-5.67-14.49-8.34a38.59,38.59,0,0,0-6.8-2.86c-3.62-1.15-5.94.44-6.5,4.06-1,6.49-1.78,13-2.61,19.53-.27,2.14-.07,4.41-.7,6.43-3.24,10.3-6.95,20.47-9.9,30.85-.93,3.27-1.42,8.12.32,10.4,4.88,6.43,4.72,13.6,5.29,20.82.16,2.07.33,4.14.5,6.19,2.82-.63,5.08-1,7.23-1.66,2.43-.76,4.74-1.88,7.16-2.7,3.49-1.17,7.08-3.3,10.52-3.1,10.39.62,16.34-5,14.84-15.15a21.72,21.72,0,0,0-1.06-4.86c-5.4-13.56-10.93-27.08-16.32-40.64-1.84-4.62-3.38-9.36-5.14-14.27,4.78-.94,6.64,1.5,8,4.5,4.08,8.72,8.42,17.33,12,26.24,3.5,8.6,6.37,17.46,9.23,26.3.94,2.9,1,6.08,1.5,9.28,6.51-2.54,8.79-5.66,7.78-11.63-.74-4.36-2.42-8.57-3.84-12.8-1.51-4.5,0-7.23,4.32-6,12.24,3.48,24.42,7.32,36.34,11.77C348.83,349.72,354.31,353.61,360.07,356.77Z"/><path class="cls-1" d="M183.19,250.41c-1.57.14-3.56.41-5.55.49-3.72.15-8.19,0-8.23,5s4.76,4.7,8.22,5.51c.8.19,1.67,0,2.49.14,4.27.63,8.59,1.06,12.78,2,5,1.16,7.37,5.49,8,9.79,1.31,9,2.89,10.75,11.78,11.79a27.19,27.19,0,0,1,10.35,4c2.78,1.66,5,2.06,7.8.49a36,36,0,0,0,15.23-15.3A19.56,19.56,0,0,1,252,268c4.27-3.12,9-5.6,13.23-8.78,1.27-1,2.37-3.66,1.91-5s-3.15-2.95-4.57-2.71c-9.08,1.51-18,3.85-27.14,5.2-5.71.84-12.37,2.26-17.25.21C206.92,252.19,195.39,251.15,183.19,250.41Z"/><path class="cls-1" d="M43.52,341.57c8.38-2.38,16.73-4.89,25.17-7.06,2.21-.57,5.79-1.06,6.88.12a149.54,149.54,0,0,1,12.79,16.24c4.11,5.92,8.39,11.51,15,15-1.68-4.78-4.08-9.09-6.13-13.56-6.79-14.8-14.08-29.41-19.95-44.57-3.88-10-4.95-20.79,2.81-30.24.36-.43.31-1.2.44-1.8C68.11,272,45,284.6,35.78,292.83a65.25,65.25,0,0,0,6.46-1.15c6.2-1.8,12.34-3.8,18.55-5.57,1.13-.32,2.45.06,3.68.11-.1,1.22.23,2.76-.38,3.61a18.31,18.31,0,0,1-4.84,4.86,104.36,104.36,0,0,1-10.64,5.48c-8.73,4.1-17.54,8-26.22,12.21-1.74.84-3.07,2.54-4.59,3.84l1.09,1.33c1.77-.82,3.52-1.67,5.31-2.44,10.82-4.65,21.6-9.38,32.51-13.82,1.42-.58,3.47.38,5.23.63-1.32,1.5-2.6,3-4,4.46-.43.44-1.22.51-1.81.8C40.33,315,24.52,322.75,8.76,330.62,4.4,332.8,1.1,336,0,342.1c2-1.27,3-2,4.18-2.64,10.69-5.66,21.28-11.53,32.15-16.82,6.23-3,13.05-4.85,19.4-7.67,9.58-4.26,12.46-3.28,17.15,7.22C62.8,327.8,51.1,331,43.52,341.57Z"/><path class="cls-1" d="M190.77,119.3l16.79,4.1-.28,1.48c-1.6.36-3.24.59-4.79,1.1-7.53,2.45-15.08,4.84-22.51,7.57-1.91.7-3.5,2.47-5,4-.58.57-1,2.19-.67,2.59.62.71,2.09,1.42,2.85,1.15,3.7-1.32,7.66-2.44,10.81-4.66s5.27-2.49,8.21.13c5.5,4.89,5.75,4.77,10.51,1.33,3.1,1,5.67,2.79,7.71,2.31,8.92-2.11,15.87-6.48,14.71-18C219.74,111.82,201.88,109.6,190.77,119.3Z"/><path class="cls-1" d="M275.56,115.12c-8.45-8.25-17.83-4.94-22.23,2.51a17.27,17.27,0,0,1-2.8,3.9c-4.13,3.88-4.81,9-1.84,13.95,1.7,2.82,3.55,3.4,5.86.81,1.68-1.9,3.26-3.89,5-6,2,3.39,3.14,7.36,4.7,7.54a28.19,28.19,0,0,0,13-1.38c2.76-1.07,1.75-6.75-1.62-8.88-2.6-1.64-5.79-2.34-8.68-3.54a31.29,31.29,0,0,1-3.19-1.77c.9-1,1.61-2.42,2.74-3C269.32,117.7,272.31,116.55,275.56,115.12Z"/><path class="cls-1" d="M274.52,211.9l.49-1.66c-3-2.47-6-5.05-9.13-7.39-4-3-8.37-4.72-13.51-2.92a7.84,7.84,0,0,1-3.94.31c-6.35-1.26-11.72,1-17,4.08-3.16,1.8-6.77,2.82-9.83,4.74-2.51,1.58-4.51,4-6.74,6l1.09,1.51c4.66-1.45,9.32-2.85,14-4.35,12-3.86,24.1-5.15,36.45-1.41C268.92,211.59,271.78,211.55,274.52,211.9Z"/><path class="cls-1" d="M228.63,228.82c13.3,2.58,26.2-2.66,39.09.49,2.7.66,3.9-1.92,2.14-3.75-4.37-4.54-8.26-10.1-16.14-8.77-6.51,1.1-13.14,1.42-19.71,2.14-2.49.27-5,.68-7.44,1l4.12,5.94Z"/><path class="cls-1" d="M247.83,186.77c2.68-2.05,5-3.89,7.35-5.59,1.87-1.34,4.13-2.23,5.72-3.82,2.8-2.81,1.91-4.67-1.4-6.72-5.74-3.55-11.33.2-17-.27-7.79-.66-13.62,3.18-18.1,9.28,3,4,7.44,5.54,9.94,2.85,2.68-2.89,4.79-2.16,7.29-.33S246.32,185.65,247.83,186.77Z"/><path class="cls-1" d="M118.3,185.64c-1.09-3-1.59-5.89-3.15-8.06a7,7,0,0,0-5.39-2.35c-1.89.12-5.34,2.07-5.24,2.8.58,4-2.44,5.32-4.27,7.72-.85,1.11.28,3.72.51,5.66,1.47-.25,3-.4,4.41-.78s3.36-1.87,4.37-1.4c4.94,2.29,9.64,5.07,14.43,7.68.91.49,1.86,1.4,2.73,1.33.65-.05,1.52-1.28,1.73-2.13C129.67,191.34,123.15,184.66,118.3,185.64Z"/><path class="cls-1" d="M213.83,231.55l.67,2a49.9,49.9,0,0,0,8-1.59c.87-.31,1.12-2.36,1.66-3.62-1.29-.5-3-1.77-3.81-1.36C218,228.11,216,230,213.83,231.55Z"/><path d="M189.65,393.94c-2.58-.87-5.42-1.29-7.67-2.69-4.47-2.78-8.24-6.58-14.28-6.07-2.25.19-4.75-1.31-7-2.37-3.19-1.53-5.89-3.11-9.5-.15-1.34,1.1-4.67-.26-7.1-.45-3.87-.31-7.76-.42-11.59-.94-2.9-.39-5.71-1.56-8.61-1.91-3.7-.45-4.44-2.89-4.82-5.89a3.16,3.16,0,0,0-1-1.68c-10.54-10-16-23.28-21.86-36.06a315.14,315.14,0,0,1-13.37-34.21c-1.53-4.69-1.18-10.31-.41-15.31.41-2.65,3.37-5.06,5.54-7.22a71.36,71.36,0,0,1,7-5.5l3.62,3.1c-.49-5.06-1.25-9.21-1.18-13.35s1-8.23,1.55-12.78l-5.09,1.15-4.42-9.54,2.63-.34,10.58-20.81c-.16-.23-.57-1.43-1.31-1.7-8.8-3.13-10.86-11.5-13.55-18.68-5.19-13.81-9.48-28-13.61-42.16a63.78,63.78,0,0,1-2.08-16.19c-.24-10.4-1.25-20.46-5.7-30.13-1.38-3-1-7.26-.22-10.69a167.22,167.22,0,0,1,5.37-18.12c.85-2.54,1.66-5.8,5.82-4.27.26.1,1-1,1.1-1.18-1.94-1.4-4.68-2.37-5-3.85-.39-1.84,1-4.23,2.05-6.14a61.07,61.07,0,0,1,4.56-6.46,6.35,6.35,0,0,1,1.94-2.13c5.16-2.41,10.39-4.68,16-7.16l-3.58-3.85c-.57.75-1,1.92-1.73,2.13-1,.28-2.12-.19-3.19-.34.21-1,.07-2.43.69-3,2.34-2.08,4.94-3.87,7.75-6,2.16,5,4.95,2.9,7.64.58,3.55-3.07,8.5-4.77,9.69-10.22.15-.7,2.16-1,3.31-1.49.12,1.81.74,3.77.24,5.39-.67,2.2-2.2,4.14-2.43,6.66,7.19-4.5,8.58-11.59,7.88-20.06l-2.28,5.87L119.21,26c.48-1.73.43-4,1.55-5.07a32,32,0,0,1,7.56-4.8c1.51-.75,3.46-.57,5-1.22a29.81,29.81,0,0,0,5.58-3.13c1.34-.93,2.24-2.67,3.66-3.26a61.81,61.81,0,0,1,11.7-3.93c2.1-.41,4.51,1.12,6.8,1.2,2.79.09,5.59-.54,8.39-.65a21.08,21.08,0,0,1,5.12.43c2.57.54,5.3,2.29,7.6,1.81,4.17-.87,5.88.72,7.06,4.21.62,1.83,1.54,3.56,2.33,5.34l1.36-.47c0-1.78-.45-3.72.13-5.28a6.77,6.77,0,0,1,3.39-3.36c2.43-1.07,5.11-1.55,7.56-2.86A11.19,11.19,0,0,0,192.37,5c-1.39.77-3.32.68-5,.7-.33,0-1.13-1.75-.94-1.94,1.2-1.24,2.5-3,4-3.24,6.42-1,12.46-1.08,18.53,3,4.38,3,10.35,3.71,15.73,5,.74.17,2.13-2.47,3.92-4.68,2.17,1.1,5.87,2.87,9.48,4.81,5.62,3-.73,7.15,1.08,11.23L250,17.76c-.09-.43-.06-.84-.23-1-1.53-1.14-3.09-2.23-4.64-3.33,1.79-.74,3.54-2,5.37-2.1a28,28,0,0,1,8.89.79c1.9.52,4.26,1.93,5,3.59,4.56,9.78,9.05,19.63,12.9,29.71,3,7.79,3.19,15.93,2.54,24.43-.78,10.14.65,20.45,1.13,30.68.07,1.5.2,3,.35,5.14-4.38-1.4-5.43-4.33-5.27-7.24.6-10.93-7.48-18.21-11.27-27.26-.75-1.8-4.38-2.22-6.37-3.7-5.1-3.78-9.82-8.09-15.06-11.65-5.8-3.93-12.56-2.27-19-2.11-4.32.11-8.64.44-13,.77a33.05,33.05,0,0,0-21.09,9.68c-2.29,2.25-3.46,5.62-5.22,8.43-2.5,4-4.87,8.35-11.13,4.34,0,2.92.88,6.15-.16,7-3.17,2.56-7,4.34-10.77,6.1-.85.4-2.32-.52-3.51-.84.61-1.15.92-2.76,1.88-3.36,4-2.49,5.78-6,6.56-10.18L166.76,75a15.83,15.83,0,0,1-1.49,2.5,21.55,21.55,0,0,1-2.45,2.14A19,19,0,0,0,161,77.12a37,37,0,0,0-3-2.46c-.75,1.63-2.58,3.88-2.06,4.79,2.83,4.94,1.77,7.92-2.43,11.93-4.68,4.47-7.85,10.59-11.28,16.23-1,1.67-.19,4.39-1,6.26-4.66,10.34-4.83,21.2-4.66,32.25a112.72,112.72,0,0,1-1.8,18.83c-.34,2.21-2.15,4.2-3.3,6.29-1.77-1.08-3.6-2.06-5.27-3.27a8,8,0,0,1-2.31-2.6c-4.57-8.6-13.27-10.13-21.43-12-7-1.63-10.73,1-12.77,7.86-4.35,14.59-.69,27.49,8.76,39l-.06-.08c4.89,9.44,12.68,15.15,22.89,17.65a11.16,11.16,0,0,0,4,.07c6.36-.81,6.38-.85,7.76,5.84,1.22,5.9,2.2,11.77-.37,17.63-2.25,5.13-4.32,5.57-8.37,1.15-.71.87-1.67,1.6-2,2.54-4,11.94-5.34,23.9-.8,36.1,3.58,9.63,6.42,19.54,10.29,29,2.37,5.81,6,11.09,9.19,16.57.3.52,1,.81,1.48,1.23,4.16,3.46,8.95,6.41,12.33,10.51,6.2,7.51,11.5,15.75,17.32,23.59a87.08,87.08,0,0,0,6,6.63c3.15,3.43,6.48,6.58,5.4,12.15-.31,1.6,1.73,3.72,2.85,5.5,1.29,2,2.77,4,4.16,6"/><path d="M360.07,356.77c-5.76-3.16-11.24-7-17.33-9.32-11.92-4.45-24.1-8.29-36.34-11.77-4.31-1.22-5.83,1.51-4.32,6,1.42,4.23,3.11,8.44,3.84,12.8,1,6-1.27,9.1-7.78,11.63-.49-3.2-.56-6.38-1.5-9.28-2.87-8.84-5.73-17.7-9.23-26.3-3.62-8.9-8-17.52-12-26.24-1.4-3-3.26-5.44-8-4.5,1.76,4.91,3.3,9.65,5.14,14.27,5.39,13.57,10.92,27.08,16.32,40.64a21.72,21.72,0,0,1,1.06,4.86c1.5,10.14-4.44,15.77-14.84,15.15-3.44-.2-7,1.93-10.52,3.1-2.41.81-4.73,1.94-7.16,2.7-2.16.67-4.41,1-7.23,1.66-.16-2-.33-4.12-.5-6.19-.57-7.22-.41-14.39-5.29-20.82-1.73-2.28-1.24-7.14-.32-10.4,3-10.38,6.66-20.55,9.9-30.85.63-2,.43-4.29.7-6.43.83-6.52,1.6-13,2.61-19.53.56-3.62,2.89-5.21,6.5-4.06a38.59,38.59,0,0,1,6.8,2.86c4.89,2.68,9.64,5.6,14.49,8.34,10.39,5.89,20.63,12.11,31.27,17.51,14.71,7.45,27.18,18,40.07,27.92a19.63,19.63,0,0,1,2.25,2.7c-12.32-6-23.86-11.62-35.46-17.16-11.43-5.46-22.91-10.81-34.8-16.41,2.12,5.21,3.87,9.55,5.65,13.87,1.39,3.37,3.9,4.86,7.53,5.64,17.48,3.72,34.41,9.06,49.71,18.61,3.47,2.17,6.63,4.84,9.93,7.28Z"/><path d="M183.19,250.41c12.2.74,23.73,1.78,35,6.49,4.89,2.05,11.55.64,17.25-.21,9.1-1.35,18.06-3.69,27.14-5.2,1.42-.24,4.11,1.38,4.57,2.71s-.63,4-1.91,5c-4.22,3.18-9,5.66-13.23,8.78a19.56,19.56,0,0,0-5.94,6.28,36,36,0,0,1-15.23,15.3c-2.85,1.57-5,1.17-7.8-.49a27.19,27.19,0,0,0-10.35-4c-8.89-1-10.47-2.75-11.78-11.79-.63-4.3-3-8.63-8-9.79-4.19-1-8.51-1.4-12.78-2-.82-.12-1.69,0-2.49-.14-3.46-.81-8.26-.65-8.22-5.51s4.51-4.81,8.23-5C179.64,250.82,181.62,250.56,183.19,250.41Z"/><path d="M43.52,341.57C51.1,331,62.8,327.8,72.88,322.18c-4.69-10.51-7.57-11.48-17.15-7.22-6.35,2.82-13.17,4.64-19.4,7.67-10.87,5.29-21.46,11.17-32.15,16.82C3,340.06,2,340.83,0,342.1c1.1-6.12,4.4-9.3,8.76-11.48C24.52,322.75,40.33,315,56.13,307.2c.6-.29,1.38-.36,1.81-.8,1.4-1.42,2.67-3,4-4.46-1.76-.25-3.81-1.21-5.23-.63-10.9,4.43-21.69,9.16-32.51,13.82-1.79.77-3.54,1.63-5.31,2.44l-1.09-1.33c1.52-1.3,2.85-3,4.59-3.84,8.68-4.19,17.5-8.11,26.22-12.21a104.36,104.36,0,0,0,10.64-5.48,18.31,18.31,0,0,0,4.84-4.86c.62-.85.29-2.38.38-3.61-1.23-.06-2.56-.44-3.68-.11-6.21,1.77-12.35,3.77-18.55,5.57a65.25,65.25,0,0,1-6.46,1.15C45,284.6,68.11,272,80.58,275.67c-.14.6-.09,1.37-.44,1.8-7.76,9.45-6.69,20.21-2.81,30.24,5.87,15.16,13.16,29.77,19.95,44.57,2,4.47,4.45,8.77,6.13,13.56-6.65-3.44-10.93-9-15-15a149.54,149.54,0,0,0-12.79-16.24c-1.09-1.19-4.67-.69-6.88-.12C60.25,336.68,51.9,339.19,43.52,341.57Z"/><path d="M190.77,119.3c11.11-9.71,29-7.48,38.34,3.05,1.16,11.55-5.79,15.92-14.71,18-2,.48-4.61-1.31-7.71-2.31-4.76,3.44-5,3.56-10.51-1.33-2.94-2.62-5-2.36-8.21-.13s-7.11,3.33-10.81,4.66c-.76.27-2.23-.44-2.85-1.15-.35-.4.09-2,.67-2.59,1.51-1.5,3.1-3.27,5-4,7.43-2.73,15-5.12,22.51-7.57,1.55-.51,3.19-.74,4.79-1.1l.28-1.48Z"/><path d="M275.56,115.12c-3.25,1.43-6.24,2.58-9,4.08-1.13.61-1.84,2-2.74,3A31.29,31.29,0,0,0,267,124c2.89,1.2,6.08,1.9,8.68,3.54,3.37,2.13,4.38,7.82,1.62,8.88a28.19,28.19,0,0,1-13,1.38c-1.56-.18-2.69-4.15-4.7-7.54-1.78,2.13-3.36,4.13-5,6-2.3,2.6-4.15,2-5.86-.81-3-4.93-2.29-10.07,1.84-13.95a17.27,17.27,0,0,0,2.8-3.9C257.73,110.17,267.11,106.87,275.56,115.12Z"/><path d="M274.52,211.9c-2.74-.34-5.6-.3-8.21-1.09-12.35-3.74-24.42-2.45-36.45,1.41-4.64,1.49-9.31,2.9-14,4.35L214.81,215c2.23-2,4.23-4.42,6.74-6,3.06-1.92,6.68-2.94,9.83-4.74,5.33-3,10.7-5.34,17-4.08a7.84,7.84,0,0,0,3.94-.31c5.15-1.8,9.5-.07,13.51,2.92,3.14,2.34,6.1,4.92,9.13,7.39Z"/><path d="M228.63,228.82l2.06-2.91L226.56,220c2.48-.35,5-.76,7.44-1,6.57-.72,13.21-1,19.71-2.14,7.88-1.33,11.77,4.23,16.14,8.77,1.76,1.82.56,4.41-2.14,3.75C254.83,226.16,241.93,231.4,228.63,228.82Z"/><path d="M247.83,186.77c-1.51-1.13-3.85-2.89-6.2-4.61s-4.61-2.55-7.29.33c-2.5,2.69-7,1.13-9.94-2.85,4.49-6.11,10.31-9.94,18.1-9.28,5.66.48,11.25-3.28,17,.27,3.31,2,4.2,3.91,1.4,6.72-1.59,1.59-3.85,2.49-5.72,3.82C252.8,182.89,250.52,184.72,247.83,186.77Z"/><path d="M118.3,185.64c4.85-1,11.36,5.7,10.14,10.47-.22.85-1.09,2.08-1.73,2.13-.87.07-1.82-.83-2.73-1.33-4.79-2.61-9.5-5.39-14.43-7.68-1-.47-2.86,1-4.37,1.4s-2.93.53-4.41.78c-.23-1.93-1.36-4.54-.51-5.66,1.82-2.4,4.85-3.71,4.27-7.72-.11-.73,3.35-2.68,5.24-2.8a7,7,0,0,1,5.39,2.35C116.71,179.75,117.22,182.67,118.3,185.64Z"/><path d="M98.39,200.22c-1.87-6.81-4.48-13.52-5.38-20.45-.7-5.4.26-11.17,1.39-16.59.69-3.31,3.85-6.45,7.42-4.82a22.45,22.45,0,0,1,8.86,7.87c1.15,1.74-1.2,4.22-3.92,2.49-3.86-2.45-5.85-.2-7.68,2.6-5.85,9-2.18,23.49,7.08,28.67,1.22.68,2.06,2,3.44,3.46-5.51,2.36-8.22-1-11.27-3.3Z"/><path d="M213.83,231.55c2.15-1.58,4.16-3.44,6.52-4.6.84-.41,2.51.86,3.81,1.36-.53,1.26-.79,3.31-1.66,3.62a49.9,49.9,0,0,1-8,1.59Z"/></svg>